<svg width="440" height="440" viewBox="0 0 440 440" fill="none" xmlns="http://www.w3.org/2000/svg">
<rect x="0.380859" y="0.54248" width="439" height="439" rx="80" fill="#E97B35"/>
<circle cx="219.881" cy="220.042" r="44" stroke="white"/>
<circle cx="219.881" cy="220.042" r="85" stroke="white"/>
<circle cx="220.381" cy="220.542" r="166.5" stroke="white"/>
<line x1="219.881" y1="134.542" x2="219.881" y2="305.542" stroke="white"/>
<line x1="219.881" y1="386.542" x2="219.881" y2="439.542" stroke="white"/>
<line x1="219.881" y1="0.54248" x2="219.881" y2="53.5425" stroke="white"/>
<line x1="439.381" y1="220.042" x2="386.381" y2="220.042" stroke="white"/>
<line x1="300.559" y1="247.075" x2="376.559" y2="276.075" stroke="white"/>
<line x1="139.203" y1="195.01" x2="63.2026" y2="166.01" stroke="white"/>
<line x1="254.914" y1="142.364" x2="283.914" y2="66.3642" stroke="white"/>
<line x1="308.961" y1="79.2713" x2="359.961" y2="0.271292" stroke="white"/>
<line x1="360.652" y1="310.122" x2="439.652" y2="361.122" stroke="white"/>
<line x1="0.652044" y1="80.1224" x2="79.652" y2="131.122" stroke="white"/>
<line x1="78.9608" y1="439.271" x2="129.961" y2="360.271" stroke="white"/>
<line x1="188.848" y1="299.721" x2="159.848" y2="375.721" stroke="white"/>
<line x1="318.919" y1="439.733" x2="290.919" y2="371.733" stroke="white"/>
<line x1="149.913" y1="69.7188" x2="123.913" y2="0.718787" stroke="white"/>
<line x1="370.199" y1="149.077" x2="439.199" y2="122.077" stroke="white"/>
<line x1="0.190484" y1="317.08" x2="68.1905" y2="289.08" stroke="white"/>
<line x1="53.3809" y1="220.042" x2="0.380859" y2="220.042" stroke="white"/>
<line x1="22.7344" y1="25.1889" x2="158.734" y2="161.189" stroke="white"/>
<line x1="417.734" y1="25.896" x2="281.734" y2="161.896" stroke="white"/>
<line x1="281.734" y1="278.189" x2="417.734" y2="414.189" stroke="white"/>
<line x1="158.734" y1="278.896" x2="22.7344" y2="414.896" stroke="white"/>
<line x1="305.381" y1="220.042" x2="134.381" y2="220.042" stroke="white"/>
</svg>
