<svg width="2722" height="510" viewBox="0 0 2722 510" fill="none" xmlns="http://www.w3.org/2000/svg">
<path d="M0 13.5V510H57.5C57.5 510 57.5033 131 57.5 58.5C57.5 58 59 53.5 64 53.5C67.6687 53.5 70.1292 54.7004 72.5 57.5C166.5 168.5 305.5 332 445.5 498.5C447.817 501.256 451 504.5 453.5 506.5C455.959 508.467 456 510 459.5 510H537.5C540.403 510 542.58 507.177 544.5 505C546.542 502.685 547.5 500.087 547.5 497C547.5 337.5 548 5.3144e-07 548 5.3144e-07H490C490 5.3144e-07 489.494 337.5 489.5 438.5C489.5 440 485.5 442.833 484.5 443C482.684 443.303 479.226 442.519 477.5 440.5C374.5 320 233.5 155.5 104 5C102.007 2.68326 98.5 1.49999 97 1C93.9999 -3.34382e-05 92.8707 -2.57729e-05 89.0589 2.64288e-07L15.5 5.3144e-07C11.7619 2.02136e-06 7.5 2.49999 5 4.99999C4.00001 5.99999 -1.64928e-05 10.9056 0 13.5Z" fill="#4D4A53"/>
<path d="M1298 255C1298 395.833 1184.06 510 1043.5 510C902.944 510 789 395.833 789 255C789 114.168 902.944 0.000230239 1043.5 0.000230239C1184.06 0.000230239 1298 114.168 1298 255Z" fill="#4D4A53"/>
<path fill-rule="evenodd" clip-rule="evenodd" d="M1538 510H1588.5C1591.05 510 1594 508.05 1595 506.994C1596.2 505.729 1597.01 502.589 1597 501.483C1596.92 491.017 1596.84 480.958 1596.76 471.172L1596.76 471.12C1596.35 421.436 1596 378.779 1596 325.639C1596 323.831 1598 320.63 1599 319.628C1600.53 318.092 1602.68 316.121 1605.5 316.121H1764C1782.81 316.121 1803 323.134 1811 326.641C1811.35 326.795 1811.72 326.956 1812.1 327.124L1812.14 327.141C1822.99 331.877 1846.56 342.174 1861.5 360.5C1898.71 406.158 1941.7 463.216 1961.53 489.551L1961.54 489.562C1967.82 497.895 1971.78 503.15 1972.5 503.988C1975.5 507.477 1979 510 1982.5 510H2049.5C2049.5 510 1933.5 360.207 1921.5 345.679C1909.5 331.15 1903.65 325.815 1889.5 316.622C1874.11 306.622 1863.93 303.975 1847.88 299.798C1843.72 298.714 1839.15 297.527 1834 296.082C1833.71 295.999 1835.28 295.754 1838.27 295.287C1854.95 292.677 1915.87 283.15 1944 256.504C1973.19 228.853 1985.78 203.943 1989 163.823C1993.37 109.381 1972.03 71.85 1930 37.0746C1894.77 7.92431 1819 0.00206889 1819 0.00206889C1819 0.00206889 1581.5 -0.00172821 1553.03 0.00159094C1548.5 0.00211863 1543.77 4.38499 1542 6.51486C1540.18 8.7014 1538 13.2936 1538 18.0192V510ZM1596 265.522H1814.74C1876.12 265.522 1928.5 216.802 1928.5 155.306C1928.5 85.1681 1862.01 48.5977 1796.5 48.597C1766.11 48.5967 1730.97 48.5968 1694.12 48.5969C1665.48 48.597 1635.8 48.5971 1606.5 48.597C1603.52 48.597 1600.61 49.491 1598.5 51.6027C1596.39 53.7144 1596 56.1312 1596 59.1176V265.522Z" fill="#4D4A53"/>
<path fill-rule="evenodd" clip-rule="evenodd" d="M2480.5 0.000230239H2412.5C2406.5 0.000230239 2396.74 5.38759 2391 10.1095C2388.09 12.5002 2381.6 18.5912 2378.5 25.7788C2294.5 220.5 2171.5 510 2171.5 510H2219.5C2223.87 510 2226.73 509.177 2230.5 506.978C2234.11 504.876 2235.51 502.564 2237.5 498.891C2248 479.5 2274.91 424.083 2274.91 424.083H2618.09C2618.09 424.083 2645 479.5 2655.5 498.891C2657.49 502.564 2658.89 504.876 2662.5 506.978C2666.27 509.177 2669.13 510 2673.5 510H2721.5C2721.5 510 2598.5 220.5 2514.5 25.7788C2511.4 18.5912 2504.91 12.5002 2502 10.1095C2496.26 5.38759 2486.5 0.000230239 2480.5 0.000230239ZM2456 53.5002C2458.1 53.5002 2459.34 54.2037 2461 55.5002C2462.54 56.704 2463.23 57.7055 2464 59.5002C2513.5 175 2597.5 373 2597.5 373H2294.5C2294.5 373 2378.5 175 2428 59.5002C2428.77 57.7055 2429.46 56.704 2431 55.5002C2432.66 54.2037 2433.9 53.5002 2436 53.5002H2456Z" fill="#4D4A53"/>
</svg>
